<svg xmlns="http://www.w3.org/2000/svg" x="0px" y="0px"
width="30" height="30"
viewBox="0 0 172 172"
style=" fill:#000000;"><g fill="none" fill-rule="nonzero" stroke="none" stroke-width="1" stroke-linecap="butt" stroke-linejoin="miter" stroke-miterlimit="10" stroke-dasharray="" stroke-dashoffset="0" font-family="none" font-weight="none" font-size="none" text-anchor="none" style="mix-blend-mode: normal"><path d="M0,172v-172h172v172z" fill="none"></path><g fill="#dc3545"><path d="M112.58386,17.23359c-10.81732,0 -21.63422,4.10947 -29.85364,12.32891l-53.16771,53.16771c-16.43887,16.43887 -16.43887,43.26841 0,59.70729c0.53534,0.53352 1.17087,0.95594 1.87005,1.24297c0.01119,0.00377 0.02238,0.0075 0.03359,0.0112c16.53944,14.79741 41.92464,14.62484 57.80364,-1.25417l53.16771,-53.16771c16.43888,-16.43887 16.43888,-43.26841 0,-59.70729c-8.21944,-8.21971 -19.03632,-12.32891 -29.85364,-12.32891zM112.58386,28.63307c7.85901,0 15.71846,3.00882 21.74636,9.03672c12.05579,12.05579 12.05579,31.43692 0,43.49271l-12.25052,12.25052l-10.27969,10.27969c-2.24173,2.24173 -5.86009,2.2472 -8.09609,0.0112c-7.59667,-7.6024 -23.24688,-23.25808 -23.24688,-23.25808h-0.0112c-4.47781,-4.47686 -11.73677,-4.47686 -16.21458,0l-18.2974,18.31979c-2.24173,2.24173 -5.87129,2.24173 -8.10729,0c-2.22185,-2.22185 -2.22724,-5.79966 -0.04479,-8.0401l53.05573,-53.05573c6.02789,-6.0279 13.88734,-9.03672 21.74636,-9.03672z"></path></g></g></svg>
